<svg width="120" height="30" viewBox="0 0 120 30" fill="none" xmlns="http://www.w3.org/2000/svg">
<path d="M92.9421 29V5.00312H101.022L111.142 21.88H111.222V5.00312H115.982V29H110.702L97.7821 7.6H97.7021V29H92.9421Z" fill="white"/>
<path d="M75.1211 29.6C66.4811 29.6 61.0811 23.28 61.0811 14.68C61.0811 10.8894 62.1301 7.54955 64.0433 4.99949L86.183 4.99587C88.1032 7.54639 89.1611 10.8876 89.1611 14.68C89.1611 23.28 83.7211 29.6 75.1211 29.6ZM75.1211 25.52C81.6811 25.52 84.4011 20.48 84.4011 14.68C84.4011 10.5523 83.0042 6.79426 79.7983 4.99587L70.4295 4.99949C67.2165 6.7993 65.8011 10.555 65.8011 14.68C65.8011 20.48 68.5611 25.52 75.1211 25.52Z" fill="white"/>
<path d="M57.04 5.00199V29H52.28V5.00199H57.04Z" fill="white"/>
<path d="M37.7276 11.96C43.8476 13.52 48.4876 14.84 48.4876 21.24C48.4876 25.8 45.0476 29.6 37.8476 29.6C30.8476 29.6 25.5276 25.96 25.2476 19.48H30.0076C30.2476 23.12 32.7276 25.52 37.8476 25.52C42.0876 25.52 43.7276 23.64 43.7276 21.44C43.7276 18.04 41.2876 17.4 35.6476 16C31.1676 14.88 26.3276 13.16 26.3276 7.72C26.3276 6.72723 26.4773 5.82001 26.7648 5.00282L46.6581 4.99474C47.2562 6.14142 47.626 7.46688 47.7276 8.96H42.9676C42.7315 7.17905 42.0236 5.84701 40.8067 4.99474C40.81 4.99711 32.1798 5.00282 32.1798 5.00282C31.4444 5.5733 31.0476 6.34495 31.0476 7.28C31.0476 10.4 33.7276 10.96 37.7276 11.96Z" fill="white"/>
<path d="M0 0.399998H5.04L12.32 23.8H12.36L19.76 0H24.76L23.7421 3L14.92 29H9.76L0 0.399998Z" fill="white"/>
<path d="M24.76 0L23.7421 3H118.26L119.76 0H24.76Z" fill="white"/>
</svg>
